<?xml version="1.0" encoding="utf-8" standalone="no"?>
<!DOCTYPE svg PUBLIC "-//W3C//DTD SVG 1.1//EN" "http://www.w3.org/Graphics/SVG/1.1/DTD/svg11.dtd">
<svg version="1.1" width="216pt" height="216pt" viewBox="0 0 216 216" overflow="visible" xmlns="http://www.w3.org/2000/svg">
  <g id="Layer_01">
    <path d="M94.87924,17.37062 C82.61131,25.560972 72.90864,38.066395 67.93775,51.37149 C90.36472,59.917313 112.79169,68.463135 135.21866,77.00896 C112.79169,85.55479 90.36472,94.1006 67.93775,102.64643 C72.90864,115.95152 82.61131,128.45695 94.87924,136.64731" stroke="#000000" stroke-width="0.24" stroke-linecap="round" stroke-linejoin="round" fill="none" />
    <path d="M102.19629,136.72539 A3.6,3.6 0 0 0 103.74005,141.76309" stroke="#000000" stroke-width="0.24" stroke-linecap="round" stroke-linejoin="round" fill="none" />
    <path d="M103.74005,141.76309 A72,72 0 0 0 166.69727,141.76309" stroke="#000000" stroke-width="0.24" stroke-linecap="round" stroke-linejoin="round" fill="none" />
    <path d="M166.69727,141.76309 A3.6,3.6 0 0 0 168.24103,136.72539" stroke="#000000" stroke-width="0.24" stroke-linecap="round" stroke-linejoin="round" fill="none" />
    <path d="M168.24103,136.72539 C166.43681,133.59879 164.62857,130.47192 162.82664,127.345474 C161.92566,125.78225 161.02626,124.21913 160.11772,122.65541 C159.20918,121.09168 158.29152,119.52734 157.44073,117.96746 C157.363,117.82494 157.28583,117.68246 157.25467,117.51952 C157.22351,117.35659 157.23837,117.1732 157.28436,117.006325 C157.37634,116.672585 157.59285,116.4049 157.87115,116.244225 C158.14944,116.08355 158.48952,116.02989 158.82454,116.1171 C158.99207,116.16071 159.15831,116.23953 159.28383,116.347984 C159.40935,116.45644 159.49417,116.59451 159.57872,116.7331 C160.50423,118.24983 161.40015,119.82673 162.30011,121.39541 C163.20006,122.96408 164.10406,124.52455 165.00737,126.086426 C166.81398,129.21017 168.61781,132.33958 170.4234,135.46538" stroke="#000000" stroke-width="0.24" stroke-linecap="round" stroke-linejoin="round" fill="none" />
    <path d="M170.42342,135.46538 A3.6,3.6 0 0 0 175.55807,136.6473" stroke="#000000" stroke-width="0.24" stroke-linecap="round" stroke-linejoin="round" fill="none" />
    <path d="M175.55807,136.6473 A72,72 0 0 0 207.21866,77.00896 A72,72 0 0 0 175.55807,17.37062" stroke="#000000" stroke-width="0.24" stroke-linecap="round" stroke-linejoin="round" fill="none" />
    <path d="M175.55807,17.37062 A3.6,3.6 0 0 0 170.42342,18.552538" stroke="#000000" stroke-width="0.24" stroke-linecap="round" stroke-linejoin="round" fill="none" />
    <path d="M170.4234,18.552538 C168.61781,21.678343 166.81398,24.807743 165.00737,27.931494 C164.10406,29.49337 163.20006,31.053835 162.30011,32.622513 C161.40015,34.191193 160.50423,35.768085 159.57872,37.284824 C159.49417,37.423405 159.40935,37.56148 159.28383,37.669933 C159.15831,37.77838 158.99207,37.857204 158.82454,37.900814 C158.48952,37.988026 158.14944,37.934372 157.87115,37.773697 C157.59285,37.61302 157.37634,37.34533 157.28436,37.01159 C157.23837,36.844715 157.22351,36.66133 157.25467,36.498398 C157.28583,36.335464 157.363,36.192978 157.44073,36.050457 C158.29152,34.49057 159.20918,32.92624 160.11772,31.362513 C161.02626,29.798788 161.92566,28.235666 162.82664,26.672445 C164.62857,23.546 166.43681,20.419134 168.24103,17.292538" stroke="#000000" stroke-width="0.24" stroke-linecap="round" stroke-linejoin="round" fill="none" />
    <path d="M168.24103,17.292538 A3.6,3.6 0 0 0 166.69727,12.254831" stroke="#000000" stroke-width="0.24" stroke-linecap="round" stroke-linejoin="round" fill="none" />
    <path d="M166.69727,12.254831 A72,72 0 0 0 103.74005,12.254831" stroke="#000000" stroke-width="0.24" stroke-linecap="round" stroke-linejoin="round" fill="none" />
    <path d="M103.74005,12.254831 A3.6,3.6 0 0 0 102.19629,17.292538" stroke="#000000" stroke-width="0.24" stroke-linecap="round" stroke-linejoin="round" fill="none" />
    <path d="M102.19629,17.292538 C104.00052,20.419134 105.80874,23.546 107.61068,26.672445 C108.51166,28.235666 109.41106,29.798788 110.319595,31.362513 C111.22813,32.92624 112.1458,34.49057 112.99658,36.050457 C113.07431,36.192978 113.15149,36.335464 113.18265,36.498398 C113.213806,36.66133 113.198944,36.844715 113.152954,37.01159 C113.06097,37.34533 112.84447,37.61302 112.56617,37.773697 C112.28787,37.934372 111.94779,37.988026 111.61277,37.900814 C111.44526,37.857204 111.279015,37.77838 111.15349,37.669933 C111.02796,37.56148 110.94315,37.423405 110.85859,37.284824 C109.93308,35.768085 109.03717,34.191193 108.13721,32.622513 C107.23725,31.053835 106.33325,29.49337 105.42995,27.931494 C103.62333,24.807743 101.8195,21.678343 100.01391,18.552538" stroke="#000000" stroke-width="0.24" stroke-linecap="round" stroke-linejoin="round" fill="none" />
    <path d="M100.0139,18.552538 A3.6,3.6 0 0 0 94.87924,17.37062" stroke="#000000" stroke-width="0.24" stroke-linecap="round" stroke-linejoin="round" fill="none" />
    <path d="M94.87924,136.6473 A3.6,3.6 0 0 0 100.0139,135.46538" stroke="#000000" stroke-width="0.24" stroke-linecap="round" stroke-linejoin="round" fill="none" />
    <path d="M100.01391,135.46538 C101.8195,132.33958 103.62333,129.21017 105.42995,126.086426 C106.33325,124.52455 107.23725,122.96408 108.13721,121.39541 C109.03717,119.82673 109.93308,118.24983 110.85859,116.7331 C110.94315,116.59451 111.02796,116.45644 111.15349,116.347984 C111.279015,116.23953 111.44526,116.16071 111.61277,116.1171 C111.94779,116.02989 112.28787,116.08355 112.56617,116.244225 C112.84447,116.4049 113.06097,116.672585 113.152954,117.006325 C113.198944,117.1732 113.213806,117.35659 113.18265,117.51952 C113.15149,117.68246 113.07431,117.82494 112.99658,117.96746 C112.1458,119.52734 111.22813,121.09168 110.319595,122.65541 C109.41106,124.21913 108.51166,125.78225 107.61068,127.345474 C105.80874,130.47192 104.00052,133.59879 102.19629,136.72539" stroke="#000000" stroke-width="0.24" stroke-linecap="round" stroke-linejoin="round" fill="none" />
  </g>
</svg>