<?xml version="1.0" encoding="utf-8" standalone="no"?>
<!DOCTYPE svg PUBLIC "-//W3C//DTD SVG 1.1//EN" "http://www.w3.org/Graphics/SVG/1.1/DTD/svg11.dtd">
<svg version="1.1" width="216pt" height="216pt" viewBox="0 0 216 216" overflow="visible" xmlns="http://www.w3.org/2000/svg">
  <g id="No_Corners">
    <path d="M86.743706,89.8835 L94.19481,89.8835 L94.19481,87.32032" stroke="#000000" stroke-width="0.24" stroke-linecap="round" stroke-linejoin="round" fill="none" />
    <path d="M137.29199,145.02167 L137.29199,148.12132 L122.389786,148.12132 L122.389786,145.02167 A1.4902208,1.4902208 0 1 0 120.89957,143.53145 L105.99735,143.53143 A1.4902208,1.4902208 0 1 0 104.50713,145.02167 L104.50714,148.12132 L89.604935,148.12132 L89.604935,145.02167" stroke="#000000" stroke-width="0.24" stroke-linecap="round" stroke-linejoin="round" fill="none" />
    <path d="M86.743706,137.57057 L89.604935,137.57057 L89.604935,145.02167" stroke="#000000" stroke-width="0.24" stroke-linecap="round" stroke-linejoin="round" fill="none" />
    <path d="M144.7431,94.47337 L147.84276,94.47337 L147.84276,109.37558 L144.7431,109.37558 A1.4902208,1.4902208 0 1 0 143.25287,110.86581 L143.25287,125.76801 A1.4902208,1.4902208 0 1 0 144.7431,127.25823 L147.84276,127.258224 L147.84276,142.16043 L144.7431,142.16043" stroke="#000000" stroke-width="0.24" stroke-linecap="round" stroke-linejoin="round" fill="none" />
    <path d="M137.29199,145.02167 L137.29199,142.16043 L144.7431,142.16043" stroke="#000000" stroke-width="0.24" stroke-linecap="round" stroke-linejoin="round" fill="none" />
    <path d="M141.88187,87.32032 L141.88187,91.49294 L141.88187,94.4485 L144.7431,94.47337" stroke="#000000" stroke-width="0.24" stroke-linecap="round" stroke-linejoin="round" fill="none" />
    <path d="M94.19481,87.32032 L94.19481,84.22066 L109.097015,84.22066 L109.097015,87.32032 A1.4902208,1.4902208 0 1 0 110.587234,88.81054 L125.48944,88.81054 A1.4902208,1.4902208 0 1 0 126.97967,87.32032 L126.97966,84.22066 L141.88187,84.22066 L141.88187,87.32032" stroke="#000000" stroke-width="0.24" stroke-linecap="round" stroke-linejoin="round" fill="none" />
    <path d="M86.743706,137.57057 L83.64404,137.57057 L83.64404,122.66835 L86.743706,122.66835 A1.4902208,1.4902208 0 1 0 88.233925,121.17813 L88.233925,106.275925 A1.4902208,1.4902208 0 1 0 86.743706,104.785706 L83.64404,104.785706 L83.64404,89.8835 L86.743706,89.8835" stroke="#000000" stroke-width="0.24" stroke-linecap="round" stroke-linejoin="round" fill="none" />
  </g>
</svg>