<?xml version="1.0" encoding="utf-8"?>
<!-- Generator: Adobe Illustrator 16.0.0, SVG Export Plug-In . SVG Version: 6.00 Build 0)  -->
<!DOCTYPE svg PUBLIC "-//W3C//DTD SVG 1.1//EN" "http://www.w3.org/Graphics/SVG/1.1/DTD/svg11.dtd">
<svg version="1.1" id="Layer_1" xmlns="http://www.w3.org/2000/svg" xmlns:xlink="http://www.w3.org/1999/xlink" x="0px" y="0px"
	 width="216px" height="216px" viewBox="0 0 216 216" enable-background="new 0 0 216 216" xml:space="preserve">
<g id="No_Corners">
	<path fill="none" stroke="#000000" stroke-width="0.24" stroke-linecap="round" stroke-linejoin="round" d="M26.691,34.296h20.892
		v-7.187"/>
	<path fill="none" stroke="#000000" stroke-width="0.24" stroke-linecap="round" stroke-linejoin="round" d="M168.419,188.893v8.689
		h-41.784v-8.689c2.309,0,4.179-1.87,4.179-4.179c0-2.306-1.87-4.18-4.179-4.18c-2.308,0-4.178,1.874-4.178,4.18l0,0H80.675
		c0-2.306-1.872-4.18-4.179-4.18c-2.308,0-4.178,1.874-4.178,4.18c0,2.309,1.87,4.179,4.178,4.179v8.689H34.713v-8.689"/>
	<path fill="none" stroke="#000000" stroke-width="0.24" stroke-linecap="round" stroke-linejoin="round" d="M26.691,168h8.022
		v20.893"/>
	<path fill="none" stroke="#000000" stroke-width="0.24" stroke-linecap="round" stroke-linejoin="round" d="M189.31,47.166H198
		v41.78h-8.69c0-2.305-1.87-4.176-4.179-4.176c-2.308,0-4.178,1.871-4.178,4.176c0,2.312,1.87,4.179,4.178,4.179v41.784
		c-2.308,0-4.178,1.873-4.178,4.178c0,2.308,1.87,4.178,4.178,4.178c2.309,0,4.179-1.87,4.179-4.178H198v41.784h-8.69"/>
	<path fill="none" stroke="#000000" stroke-width="0.24" stroke-linecap="round" stroke-linejoin="round" d="M168.419,188.893
		v-8.022h20.891"/>
	<path fill="none" stroke="#000000" stroke-width="0.24" stroke-linecap="round" stroke-linejoin="round" d="M181.287,27.109v11.7
		v8.286l8.022,0.071"/>
	<path fill="none" stroke="#000000" stroke-width="0.24" stroke-linecap="round" stroke-linejoin="round" d="M47.583,27.109v-8.691
		h41.784v8.691c-2.31,0-4.18,1.87-4.18,4.179c0,2.308,1.87,4.178,4.18,4.178c2.306,0,4.178-1.87,4.178-4.178l0,0h41.78
		c0,2.308,1.87,4.178,4.179,4.178s4.179-1.87,4.179-4.178c0-2.309-1.87-4.179-4.179-4.179v-8.691h41.783v8.691"/>
	<path fill="none" stroke="#000000" stroke-width="0.24" stroke-linecap="round" stroke-linejoin="round" d="M26.691,168H18v-41.783
		h8.691c0,2.31,1.871,4.18,4.178,4.18c2.309,0,4.179-1.87,4.179-4.18c0-2.305-1.87-4.179-4.179-4.179l0,0V80.257
		c2.309,0,4.179-1.87,4.179-4.178c0-2.307-1.87-4.179-4.179-4.179c-2.307,0-4.178,1.872-4.178,4.179l0,0H18V34.296h8.691"/>
</g>
</svg>
