<?xml version="1.0" encoding="utf-8" standalone="no"?>
<!DOCTYPE svg PUBLIC "-//W3C//DTD SVG 1.1//EN" "http://www.w3.org/Graphics/SVG/1.1/DTD/svg11.dtd">
<svg version="1.1" width="216pt" height="216pt" viewBox="0 0 216 216" overflow="visible" xmlns="http://www.w3.org/2000/svg">
  <g id="Default">
    <path d="M62.06762,60.653816 L30.268972,60.653816 L30.268972,69.284874" stroke="#000000" stroke-width="0.24" stroke-linecap="round" stroke-linejoin="round" fill="none" />
    <path d="M37.71894,90.63539 L37.71894,71.55621" stroke="#000000" stroke-width="0.24" stroke-linecap="round" stroke-linejoin="round" fill="none" />
    <path d="M30.268972,92.90672 L35.44761,92.90672" stroke="#000000" stroke-width="0.24" stroke-linecap="round" stroke-linejoin="round" fill="none" />
    <path d="M35.44761,119.25417 L30.268972,119.25417" stroke="#000000" stroke-width="0.24" stroke-linecap="round" stroke-linejoin="round" fill="none" />
    <path d="M37.71894,140.60469 L37.71894,121.525505" stroke="#000000" stroke-width="0.24" stroke-linecap="round" stroke-linejoin="round" fill="none" />
    <path d="M30.268972,142.87602 L35.44761,142.87602" stroke="#000000" stroke-width="0.24" stroke-linecap="round" stroke-linejoin="round" fill="none" />
    <path d="M63.884686,146.32845 L63.884686,151.5071" stroke="#000000" stroke-width="0.24" stroke-linecap="round" stroke-linejoin="round" fill="none" />
    <path d="M85.2352,144.05711 L66.15601,144.05711" stroke="#000000" stroke-width="0.24" stroke-linecap="round" stroke-linejoin="round" fill="none" />
    <path d="M87.50653,151.5071 L87.50653,146.32845" stroke="#000000" stroke-width="0.24" stroke-linecap="round" stroke-linejoin="round" fill="none" />
    <path d="M87.50653,151.5071 L121.12224,151.5071 L121.12224,144.69308" stroke="#000000" stroke-width="0.24" stroke-linecap="round" stroke-linejoin="round" fill="none" />
    <path d="M123.39358,142.42177 L128.11795,142.42177 L128.11795,119.708435 L123.39358,119.708435" stroke="#000000" stroke-width="0.24" stroke-linecap="round" stroke-linejoin="round" fill="none" />
    <path d="M121.12224,117.43711 L121.12224,94.72379" stroke="#000000" stroke-width="0.24" stroke-linecap="round" stroke-linejoin="round" fill="none" />
    <path d="M123.39358,92.45245 L128.11795,92.45245 L128.11795,69.73914 L123.39358,69.73914" stroke="#000000" stroke-width="0.24" stroke-linecap="round" stroke-linejoin="round" fill="none" />
    <path d="M35.44761,69.284874 L30.268972,69.284874" stroke="#000000" stroke-width="0.24" stroke-linecap="round" stroke-linejoin="round" fill="none" />
    <path d="M37.71894,71.556206 A2.2713318,2.2713318 0 1 0 35.44761,69.284874" stroke="#000000" stroke-width="0.24" stroke-linecap="round" stroke-linejoin="round" fill="none" />
    <path d="M35.44761,92.90672 A2.2713318,2.2713318 0 1 0 37.71894,90.63539" stroke="#000000" stroke-width="0.24" stroke-linecap="round" stroke-linejoin="round" fill="none" />
    <path d="M37.71894,121.525505 A2.2713318,2.2713318 0 1 0 35.44761,119.25417" stroke="#000000" stroke-width="0.24" stroke-linecap="round" stroke-linejoin="round" fill="none" />
    <path d="M35.44761,142.87602 A2.2713318,2.2713318 0 1 0 37.71894,140.60469" stroke="#000000" stroke-width="0.24" stroke-linecap="round" stroke-linejoin="round" fill="none" />
    <path d="M66.15601,144.05711 A2.2713318,2.2713318 0 1 0 63.88468,146.32845" stroke="#000000" stroke-width="0.24" stroke-linecap="round" stroke-linejoin="round" fill="none" />
    <path d="M87.50653,146.32845 A2.2713318,2.2713318 0 1 0 85.2352,144.05711" stroke="#000000" stroke-width="0.24" stroke-linecap="round" stroke-linejoin="round" fill="none" />
    <path d="M123.39357,142.42175 A2.2713318,2.2713318 0 1 0 121.12224,144.69308" stroke="#000000" stroke-width="0.24" stroke-linecap="round" stroke-linejoin="round" fill="none" />
    <path d="M121.12224,117.43711 A2.2713318,2.2713318 0 1 0 123.39357,119.70844" stroke="#000000" stroke-width="0.24" stroke-linecap="round" stroke-linejoin="round" fill="none" />
    <path d="M123.39357,92.45246 A2.2713318,2.2713318 0 1 0 121.12224,94.72379" stroke="#000000" stroke-width="0.24" stroke-linecap="round" stroke-linejoin="round" fill="none" />
    <path d="M121.12224,67.46781 A2.2713318,2.2713318 0 1 0 123.39357,69.73914" stroke="#000000" stroke-width="0.24" stroke-linecap="round" stroke-linejoin="round" fill="none" />
    <path d="M87.05226,58.382484 A2.2713318,2.2713318 0 1 0 89.32359,60.653816" stroke="#000000" stroke-width="0.24" stroke-linecap="round" stroke-linejoin="round" fill="none" />
    <path d="M62.067616,60.653816 A2.2713318,2.2713318 0 1 0 64.33895,58.382484" stroke="#000000" stroke-width="0.24" stroke-linecap="round" stroke-linejoin="round" fill="none" />
    <path d="M30.268972,142.87602 L30.268972,151.5071 L63.884686,151.5071" stroke="#000000" stroke-width="0.24" stroke-linecap="round" stroke-linejoin="round" fill="none" />
    <path d="M30.268972,92.90672 L30.268972,119.25417" stroke="#000000" stroke-width="0.24" stroke-linecap="round" stroke-linejoin="round" fill="none" />
    <path d="M121.12224,67.46781 L121.12224,60.653816 L89.32359,60.653816" stroke="#000000" stroke-width="0.24" stroke-linecap="round" stroke-linejoin="round" fill="none" />
    <path d="M87.05227,58.382484 L87.05227,53.65811 L64.33895,53.65811 L64.33895,58.382484" stroke="#000000" stroke-width="0.24" stroke-linecap="round" stroke-linejoin="round" fill="none" />
  </g>
</svg>