<?xml version="1.0" encoding="utf-8" standalone="no"?>
<!DOCTYPE svg PUBLIC "-//W3C//DTD SVG 1.1//EN" "http://www.w3.org/Graphics/SVG/1.1/DTD/svg11.dtd">
<svg version="1.1" width="216pt" height="216pt" viewBox="0 0 216 216" overflow="visible" xmlns="http://www.w3.org/2000/svg">
  <g id="Combined_Conservative">
    <path d="M139.36397,61.499847 L108.01961,61.499847" stroke="#000000" stroke-width="0.24" stroke-linecap="round" stroke-linejoin="round" fill="none" />
    <path d="M139.36397,65.40654 L139.36397,61.499847" stroke="#000000" stroke-width="0.24" stroke-linecap="round" stroke-linejoin="round" fill="none" />
    <path d="M139.36398,134.45502 A2.2713318,2.2713318 0 1 0 141.63531,136.72635" stroke="#000000" stroke-width="0.24" stroke-linecap="round" stroke-linejoin="round" fill="none" />
    <path d="M139.36397,65.40654 L139.36397,84.485725" stroke="#000000" stroke-width="0.24" stroke-linecap="round" stroke-linejoin="round" fill="none" />
    <path d="M146.81395,113.10451 L141.63531,113.10451" stroke="#000000" stroke-width="0.24" stroke-linecap="round" stroke-linejoin="round" fill="none" />
    <path d="M90.03066,147.62874 L90.03066,152.3531 L112.74398,152.3531 L112.74398,147.62874" stroke="#000000" stroke-width="0.24" stroke-linecap="round" stroke-linejoin="round" fill="none" />
    <path d="M146.81395,113.10451 L146.81395,86.75706" stroke="#000000" stroke-width="0.24" stroke-linecap="round" stroke-linejoin="round" fill="none" />
    <path d="M115.015305,145.35742 A2.2713318,2.2713318 0 1 0 112.74397,147.62875" stroke="#000000" stroke-width="0.24" stroke-linecap="round" stroke-linejoin="round" fill="none" />
    <path d="M90.030655,147.62875 A2.2713318,2.2713318 0 1 0 87.75932,145.35742" stroke="#000000" stroke-width="0.24" stroke-linecap="round" stroke-linejoin="round" fill="none" />
    <path d="M139.36398,84.485725 A2.2713318,2.2713318 0 1 0 141.63531,86.75706" stroke="#000000" stroke-width="0.24" stroke-linecap="round" stroke-linejoin="round" fill="none" />
    <path d="M141.63531,113.10451 A2.2713318,2.2713318 0 1 0 139.36398,115.37584" stroke="#000000" stroke-width="0.24" stroke-linecap="round" stroke-linejoin="round" fill="none" />
    <path d="M141.63531,136.72635 L146.81395,136.72635" stroke="#000000" stroke-width="0.24" stroke-linecap="round" stroke-linejoin="round" fill="none" />
    <path d="M141.63531,86.75706 L146.81395,86.75706" stroke="#000000" stroke-width="0.24" stroke-linecap="round" stroke-linejoin="round" fill="none" />
    <path d="M139.36397,115.37584 L139.36397,134.45502" stroke="#000000" stroke-width="0.24" stroke-linecap="round" stroke-linejoin="round" fill="none" />
    <path d="M115.015305,145.3574 L146.81395,145.3574 L146.81395,136.72635" stroke="#000000" stroke-width="0.24" stroke-linecap="round" stroke-linejoin="round" fill="none" />
    <path d="M105.74827,59.22852 L105.74827,54.504147 L83.03495,54.504147 L83.03495,59.22852" stroke="#000000" stroke-width="0.24" stroke-linecap="round" stroke-linejoin="round" fill="none" />
    <path d="M80.763626,61.499847 L48.96498,61.499847 L48.96498,70.13091" stroke="#000000" stroke-width="0.24" stroke-linecap="round" stroke-linejoin="round" fill="none" />
    <path d="M56.414948,141.45071 L56.414948,122.37154" stroke="#000000" stroke-width="0.24" stroke-linecap="round" stroke-linejoin="round" fill="none" />
    <path d="M54.143616,70.13091 L48.96498,70.13091" stroke="#000000" stroke-width="0.24" stroke-linecap="round" stroke-linejoin="round" fill="none" />
    <path d="M56.414948,122.37154 A2.2713318,2.2713318 0 1 0 54.143616,120.100204" stroke="#000000" stroke-width="0.24" stroke-linecap="round" stroke-linejoin="round" fill="none" />
    <path d="M48.96498,93.75276 L48.96498,120.10021" stroke="#000000" stroke-width="0.24" stroke-linecap="round" stroke-linejoin="round" fill="none" />
    <path d="M56.414948,91.48142 L56.414948,72.40224" stroke="#000000" stroke-width="0.24" stroke-linecap="round" stroke-linejoin="round" fill="none" />
    <path d="M48.96498,93.75276 L54.143616,93.75276" stroke="#000000" stroke-width="0.24" stroke-linecap="round" stroke-linejoin="round" fill="none" />
    <path d="M54.143616,120.10021 L48.96498,120.10021" stroke="#000000" stroke-width="0.24" stroke-linecap="round" stroke-linejoin="round" fill="none" />
    <path d="M56.414948,72.402245 A2.2713318,2.2713318 0 1 0 54.143616,70.13091" stroke="#000000" stroke-width="0.24" stroke-linecap="round" stroke-linejoin="round" fill="none" />
    <path d="M54.143616,93.75276 A2.2713318,2.2713318 0 1 0 56.414948,91.48143" stroke="#000000" stroke-width="0.24" stroke-linecap="round" stroke-linejoin="round" fill="none" />
    <path d="M105.748276,59.228516 A2.2713318,2.2713318 0 1 0 108.0196,61.499847" stroke="#000000" stroke-width="0.24" stroke-linecap="round" stroke-linejoin="round" fill="none" />
    <path d="M80.763626,61.499847 A2.2713318,2.2713318 0 1 0 83.03496,59.228516" stroke="#000000" stroke-width="0.24" stroke-linecap="round" stroke-linejoin="round" fill="none" />
    <path d="M56.414948,145.3574 L87.75932,145.3574" stroke="#000000" stroke-width="0.24" stroke-linecap="round" stroke-linejoin="round" fill="none" />
    <path d="M56.414948,141.45071 L56.414948,145.3574" stroke="#000000" stroke-width="0.24" stroke-linecap="round" stroke-linejoin="round" fill="none" />
  </g>
</svg>