<?xml version="1.0" encoding="utf-8"?>
<!-- Generator: Adobe Illustrator 16.0.0, SVG Export Plug-In . SVG Version: 6.00 Build 0)  -->
<!DOCTYPE svg PUBLIC "-//W3C//DTD SVG 1.1//EN" "http://www.w3.org/Graphics/SVG/1.1/DTD/svg11.dtd">
<svg version="1.1" id="Layer_1" xmlns="http://www.w3.org/2000/svg" xmlns:xlink="http://www.w3.org/1999/xlink" x="0px" y="0px"
	 width="216px" height="216px" viewBox="0 0 216 216" enable-background="new 0 0 216 216" xml:space="preserve">
<g id="Combined_Conservative">
	<path fill="none" stroke="#000000" stroke-width="0.24" stroke-linecap="round" stroke-linejoin="round" d="M184.293,30.87h-57.658
		"/>
	<path fill="none" stroke="#000000" stroke-width="0.24" stroke-linecap="round" stroke-linejoin="round" d="M184.293,38.056V30.87"
		/>
	<path fill="none" stroke="#000000" stroke-width="0.24" stroke-linecap="round" stroke-linejoin="round" d="M184.293,165.075
		c-2.307,0-4.177,1.87-4.177,4.178c0,2.307,1.87,4.179,4.177,4.179c2.309,0,4.179-1.872,4.179-4.179"/>
	<path fill="none" stroke="#000000" stroke-width="0.24" stroke-linecap="round" stroke-linejoin="round" d="M184.293,38.056v35.097
		"/>
	<path fill="none" stroke="#000000" stroke-width="0.24" stroke-linecap="round" stroke-linejoin="round" d="M198,125.799h-9.528"/>
	<path fill="none" stroke="#000000" stroke-width="0.24" stroke-linecap="round" stroke-linejoin="round" d="M93.543,189.309V198
		h41.783v-8.691"/>
	<path fill="none" stroke="#000000" stroke-width="0.24" stroke-linecap="round" stroke-linejoin="round" d="M198,125.799V77.331"/>
	<path fill="none" stroke="#000000" stroke-width="0.24" stroke-linecap="round" stroke-linejoin="round" d="M139.504,185.13
		c0-2.307-1.872-4.178-4.178-4.178c-2.307,0-4.179,1.871-4.179,4.178s1.872,4.179,4.179,4.179"/>
	<path fill="none" stroke="#000000" stroke-width="0.24" stroke-linecap="round" stroke-linejoin="round" d="M93.543,189.309
		c2.308,0,4.178-1.872,4.178-4.179s-1.87-4.178-4.178-4.178s-4.178,1.871-4.178,4.178"/>
	<path fill="none" stroke="#000000" stroke-width="0.24" stroke-linecap="round" stroke-linejoin="round" d="M184.293,73.153
		c-2.307,0-4.177,1.87-4.177,4.178c0,2.309,1.87,4.179,4.177,4.179c2.309,0,4.179-1.87,4.179-4.179"/>
	<path fill="none" stroke="#000000" stroke-width="0.24" stroke-linecap="round" stroke-linejoin="round" d="M188.472,125.799
		c0-2.308-1.87-4.178-4.179-4.178c-2.307,0-4.177,1.87-4.177,4.178c0,2.309,1.87,4.179,4.177,4.179"/>
	<path fill="none" stroke="#000000" stroke-width="0.24" stroke-linecap="round" stroke-linejoin="round" d="M188.472,169.253H198"
		/>
	<path fill="none" stroke="#000000" stroke-width="0.24" stroke-linecap="round" stroke-linejoin="round" d="M188.472,77.331H198"/>
	<path fill="none" stroke="#000000" stroke-width="0.24" stroke-linecap="round" stroke-linejoin="round" d="M184.293,129.978
		v35.098"/>
	<path fill="none" stroke="#000000" stroke-width="0.24" stroke-linecap="round" stroke-linejoin="round" d="M139.504,185.13H198
		v-15.877"/>
	<path fill="none" stroke="#000000" stroke-width="0.24" stroke-linecap="round" stroke-linejoin="round" d="M122.456,26.691V18
		H80.674v8.691"/>
	<path fill="none" stroke="#000000" stroke-width="0.24" stroke-linecap="round" stroke-linejoin="round" d="M76.496,30.87H18
		v15.877"/>
	<path fill="none" stroke="#000000" stroke-width="0.24" stroke-linecap="round" stroke-linejoin="round" d="M31.705,177.944
		v-35.099"/>
	<path fill="none" stroke="#000000" stroke-width="0.24" stroke-linecap="round" stroke-linejoin="round" d="M27.526,46.747H18"/>
	<path fill="none" stroke="#000000" stroke-width="0.24" stroke-linecap="round" stroke-linejoin="round" d="M31.705,142.846
		c2.308,0,4.179-1.87,4.179-4.179c0-2.307-1.871-4.177-4.179-4.177s-4.179,1.87-4.179,4.177"/>
	<path fill="none" stroke="#000000" stroke-width="0.24" stroke-linecap="round" stroke-linejoin="round" d="M18,90.201v48.466"/>
	<path fill="none" stroke="#000000" stroke-width="0.24" stroke-linecap="round" stroke-linejoin="round" d="M31.705,86.022V50.925"
		/>
	<path fill="none" stroke="#000000" stroke-width="0.24" stroke-linecap="round" stroke-linejoin="round" d="M18,90.201h9.526"/>
	<path fill="none" stroke="#000000" stroke-width="0.24" stroke-linecap="round" stroke-linejoin="round" d="M27.526,138.667H18"/>
	<path fill="none" stroke="#000000" stroke-width="0.24" stroke-linecap="round" stroke-linejoin="round" d="M31.705,50.925
		c2.308,0,4.179-1.871,4.179-4.179s-1.871-4.178-4.179-4.178s-4.179,1.871-4.179,4.178"/>
	<path fill="none" stroke="#000000" stroke-width="0.24" stroke-linecap="round" stroke-linejoin="round" d="M27.526,90.201
		c0,2.308,1.871,4.178,4.179,4.178s4.179-1.87,4.179-4.178c0-2.307-1.871-4.178-4.179-4.178"/>
	<path fill="none" stroke="#000000" stroke-width="0.24" stroke-linecap="round" stroke-linejoin="round" d="M122.456,26.691
		c-2.308,0-4.178,1.871-4.178,4.178s1.87,4.178,4.178,4.178c2.309,0,4.179-1.87,4.179-4.178l0,0"/>
	<path fill="none" stroke="#000000" stroke-width="0.24" stroke-linecap="round" stroke-linejoin="round" d="M76.496,30.87
		c0,2.308,1.871,4.178,4.179,4.178s4.178-1.87,4.178-4.178s-1.87-4.178-4.178-4.178"/>
	<path fill="none" stroke="#000000" stroke-width="0.24" stroke-linecap="round" stroke-linejoin="round" d="M31.705,185.13h57.66"
		/>
	<path fill="none" stroke="#000000" stroke-width="0.24" stroke-linecap="round" stroke-linejoin="round" d="M31.705,177.944v7.186"
		/>
</g>
</svg>
