<?xml version="1.0" encoding="utf-8"?>
<!-- Generator: Adobe Illustrator 16.0.0, SVG Export Plug-In . SVG Version: 6.00 Build 0)  -->
<!DOCTYPE svg PUBLIC "-//W3C//DTD SVG 1.1//EN" "http://www.w3.org/Graphics/SVG/1.1/DTD/svg11.dtd">
<svg version="1.1" id="Layer_1" xmlns="http://www.w3.org/2000/svg" xmlns:xlink="http://www.w3.org/1999/xlink" x="0px" y="0px"
	 width="108px" height="108px" viewBox="233.78 234 108 108" enable-background="new 233.78 234 108 108" xml:space="preserve">
<path d="M327.385,295.561c0,0.99-0.4,1.89-1.06,2.55c-0.65,0.649-1.56,1.05-2.55,1.05h-72c-1.98,0-3.6-1.609-3.6-3.6
	c0-0.99,0.41-1.891,1.06-2.551c0.65-0.649,1.55-1.049,2.54-1.049h32.4v-7.92h-32.4c-1.98,0-3.6-1.61-3.6-3.6
	c0-0.99,0.41-1.89,1.06-2.55c0.65-0.65,1.55-1.05,2.54-1.05h72c1.99,0,3.609,1.61,3.609,3.6c0,0.99-0.4,1.89-1.06,2.55
	c-0.65,0.65-1.56,1.05-2.55,1.05h-32.391v7.92h32.391C325.766,291.961,327.385,293.57,327.385,295.561z"/>
</svg>
