<?xml version="1.0" encoding="utf-8"?>
<!-- Generator: Adobe Illustrator 16.0.0, SVG Export Plug-In . SVG Version: 6.00 Build 0)  -->
<!DOCTYPE svg PUBLIC "-//W3C//DTD SVG 1.1//EN" "http://www.w3.org/Graphics/SVG/1.1/DTD/svg11.dtd">
<svg version="1.1" id="Layer_1" xmlns="http://www.w3.org/2000/svg" xmlns:xlink="http://www.w3.org/1999/xlink" x="0px" y="0px"
	 width="576px" height="576px" viewBox="0 0 576 576" enable-background="new 0 0 576 576" xml:space="preserve">
<path d="M89.78,30.01c0,0.99-0.4,1.89-1.06,2.55c-0.65,0.65-1.56,1.05-2.55,1.05h-72c-1.98,0-3.6-1.61-3.6-3.6
	c0-0.99,0.41-1.89,1.06-2.55c0.65-0.65,1.55-1.05,2.54-1.05h32.4v-7.92h-32.4c-1.98,0-3.6-1.61-3.6-3.6c0-0.99,0.41-1.89,1.06-2.55
	c0.65-0.65,1.55-1.05,2.54-1.05h72c1.99,0,3.61,1.61,3.61,3.6c0,0.99-0.4,1.89-1.06,2.55c-0.65,0.65-1.56,1.05-2.55,1.05H53.78v7.92
	h32.39C88.16,26.41,89.78,28.02,89.78,30.01z"/>
</svg>
